<?xml version="1.0" encoding="utf-8"?>
<!-- Generator: Adobe Illustrator 23.0.4, SVG Export Plug-In . SVG Version: 6.00 Build 0)  -->
<svg version="1.1" id="Layer_1" xmlns="http://www.w3.org/2000/svg" xmlns:xlink="http://www.w3.org/1999/xlink" x="0px" y="0px"
	 viewBox="0 0 400 64" style="enable-background:new 0 0 400 64;" xml:space="preserve">
<style type="text/css">
	.st0{fill:#FFFFFF;}
</style>
<g>
	<path class="st0" d="M58.23,14.22c-8.43,0-15.25,6.83-15.26,15.26c0.01,8.42,6.83,15.24,15.26,15.25c8.44,0,15.25-6.82,15.26-15.25
		C73.49,21.05,66.67,14.22,58.23,14.22L58.23,14.22z M63.72,34.95c-1.42,1.41-3.34,2.27-5.49,2.27c-2.15,0-4.05-0.86-5.48-2.27
		c-1.4-1.41-2.26-3.33-2.26-5.47c0-2.16,0.86-4.07,2.26-5.48c1.42-1.41,3.33-2.27,5.48-2.27c2.15,0,4.07,0.86,5.48,2.27
		c1.42,1.41,2.26,3.32,2.27,5.48C65.98,31.63,65.14,33.54,63.72,34.95L63.72,34.95z"/>
	<path class="st0" d="M91.53,14.22c-2.83,0-5.48,0.77-7.75,2.12c0-4.78,0-9.09,0-11.11c0-5.88-7.52-5.29-7.52-5.29v29.54l0.02,0.01
		c0.01,8.42,6.83,15.24,15.26,15.24c8.43-0.01,15.25-6.82,15.25-15.25C106.79,21.05,99.96,14.22,91.53,14.22L91.53,14.22z
		 M97.01,34.95c-1.41,1.41-3.33,2.27-5.48,2.27c-2.15,0-4.06-0.86-5.47-2.27c-1.41-1.41-2.27-3.33-2.27-5.48
		c0.01-2.16,0.86-4.07,2.28-5.48c1.41-1.41,3.31-2.27,5.46-2.27c2.15,0,4.07,0.86,5.48,2.27c1.41,1.41,2.27,3.32,2.27,5.47
		C99.28,31.63,98.42,33.54,97.01,34.95L97.01,34.95z"/>
	<path class="st0" d="M140.03,29.12c-0.19-8.27-6.94-14.91-15.24-14.91c-8.43,0-15.26,6.83-15.26,15.26
		c0,8.43,6.82,15.25,15.26,15.25c2.82,0.01,5.48-0.77,7.76-2.11l-0.01,2.13h7.51v-6.3v-9.31H140.03z M130.26,34.95
		c-1.41,1.4-3.33,2.26-5.47,2.27c-2.16-0.01-4.07-0.87-5.48-2.27c-1.42-1.42-2.27-3.33-2.28-5.48c0.01-2.16,0.86-4.07,2.28-5.48
		c1.42-1.41,3.32-2.26,5.48-2.26c2.14,0,4.05,0.85,5.47,2.26c1.41,1.41,2.27,3.33,2.28,5.48C132.53,31.61,131.66,33.53,130.26,34.95
		L130.26,34.95z"/>
	<path class="st0" d="M25.16,40.46c2.81-2.73,4.57-6.55,4.57-10.8c0-3.13-0.96-6.04-2.59-8.44c3.11-1.93,2.51-6.61,2.51-6.61H15.09
		c-0.13,0-0.27-0.01-0.4-0.01c-8.32,0-15.05,6.74-15.05,15.05c0,8.31,6.73,15.04,15.06,15.06c0.65-0.01,1.95-0.01,1.95-0.01
		c1.58,0,2.97,0.63,4.01,1.66c1.04,1.04,1.67,2.43,1.67,4c0,1.59-0.63,2.97-1.67,4.01c-1.04,1.03-2.43,1.67-4.01,1.66
		c-1.57,0-2.97-0.63-4-1.66c-1.04-1.04-1.65-2.42-1.66-4.01c0-0.84,0.18-1.61,0.49-2.32L4.72,45c-0.74,1.64-1.15,3.47-1.15,5.37
		c0,7.24,5.86,13.08,13.07,13.08c7.22,0,13.08-5.84,13.08-13.08C29.72,46.4,27.96,42.85,25.16,40.46L25.16,40.46z M20.08,35.06
		c-1.39,1.39-3.29,2.24-5.39,2.25c-2.13-0.01-4.02-0.85-5.42-2.25c-1.38-1.39-2.24-3.28-2.23-5.4c0-2.13,0.85-4.01,2.23-5.4
		c1.36-1.34,3.18-2.18,5.22-2.23h-0.01h0.01h0c0.02,0,0.21,0,0.59,0.01c1.96,0.1,3.7,0.93,5,2.22c1.4,1.4,2.24,3.28,2.24,5.4
		C22.32,31.79,21.48,33.67,20.08,35.06L20.08,35.06z"/>
	<path class="st0" d="M143.23,0.14v37.74v6.8h7.52c0,0,0-33.38,0-39.26C150.76-0.46,143.23,0.14,143.23,0.14L143.23,0.14z"/>
	<path class="st0" d="M32.62,0.14v37.75v6.8h7.52V5.43C40.14-0.46,32.62,0.14,32.62,0.14L32.62,0.14z"/>
	<path class="st0" d="M225.21,18.76c-1.3,1.56-3.18,3.48-5.64,5.77c-1.47-1.47-3.18-2.2-5.13-2.2c-1.99,0-3.69,0.7-5.09,2.1
		c-1.41,1.41-2.11,3.13-2.11,5.16c0,1.99,0.71,3.69,2.11,5.09c1.4,1.41,3.1,2.11,5.09,2.11c2.08,0,3.83-0.69,5.26-2.08
		c3.67,3.63,5.49,5.54,5.45,5.71c-2.98,2.94-6.55,4.41-10.7,4.41c-4.19,0-7.78-1.49-10.77-4.47c-2.98-2.99-4.47-6.57-4.47-10.77
		c0-4.24,1.49-7.85,4.47-10.83c2.98-2.99,6.57-4.48,10.77-4.48C218.64,14.28,222.23,15.77,225.21,18.76L225.21,18.76z"/>
	<path class="st0" d="M366.31,25.96c0-3.2-1.2-5.95-3.58-8.25c-2.39-2.3-5.22-3.45-8.51-3.45c-3.07,0-5.74,1.01-8.02,3.02
		c-2.23-1.89-4.82-2.82-7.75-2.82c-3.29,0-6.09,1.14-8.41,3.42c-2.32,2.28-3.51,5.04-3.55,8.28v18.66h8.28
		c0-12.62-0.02-18.79-0.06-18.53c0.04-1.09,0.43-2.01,1.15-2.76c0.72-0.74,1.61-1.11,2.66-1.11c2.15,0,3.4,1.07,3.75,3.22
		c-0.09,0.04-0.09,6.44,0,19.19h8.21V26.09c0-1.05,0.37-1.95,1.12-2.69c0.74-0.74,1.66-1.12,2.76-1.12c1.05,0,1.95,0.37,2.7,1.12
		c0.74,0.74,1.12,1.64,1.12,2.69l-0.07,18.73h8.21V25.96L366.31,25.96z"/>
	<path class="st0" d="M195.85,29.2c-0.19-8.24-6.92-14.86-15.19-14.86c-8.41,0-15.21,6.81-15.21,15.21c0,8.4,6.8,15.2,15.21,15.2
		c2.81,0.01,5.46-0.77,7.73-2.11l-0.01,2.13h7.49v-6.28V29.2H195.85z M186.11,35c-1.41,1.4-3.31,2.26-5.45,2.26
		c-2.16-0.01-4.06-0.86-5.46-2.26c-1.41-1.42-2.26-3.32-2.27-5.46c0.01-2.15,0.86-4.06,2.27-5.46c1.41-1.41,3.31-2.26,5.46-2.26
		c2.14,0,4.04,0.85,5.45,2.26c1.4,1.4,2.27,3.32,2.27,5.46C188.38,31.68,187.51,33.59,186.11,35L186.11,35z"/>
	<path class="st0" d="M256.53,29.2c-0.19-8.24-6.92-14.86-15.19-14.86c-8.41,0-15.21,6.81-15.21,15.21c0,8.4,6.8,15.2,15.21,15.2
		c2.81,0.01,5.46-0.77,7.73-2.11l-0.01,2.17h7.49v-6.32V29.2H256.53z M246.79,35c-1.41,1.4-3.31,2.26-5.45,2.26
		c-2.16-0.01-4.06-0.86-5.46-2.26c-1.41-1.42-2.26-3.32-2.27-5.46c0.01-2.15,0.86-4.06,2.27-5.46c1.41-1.41,3.31-2.26,5.46-2.26
		c2.14,0,4.04,0.85,5.45,2.26c1.4,1.4,2.27,3.32,2.27,5.46C249.05,31.68,248.19,33.59,246.79,35L246.79,35z"/>
	<path class="st0" d="M290.24,5.23c0-5.88-7.52-5.29-7.52-5.29v12.66h0v3.75c-2.27-1.35-4.92-2.13-7.75-2.12
		c-8.43,0-15.25,6.83-15.25,15.26c0,8.43,6.82,15.24,15.25,15.25c8.42-0.01,15.25-6.82,15.25-15.24l0.02-0.01V8.02h0
		C290.24,6.88,290.24,5.92,290.24,5.23L290.24,5.23z M280.45,34.95c-1.41,1.41-3.32,2.27-5.47,2.27c-2.15,0.01-4.07-0.86-5.48-2.27
		c-1.41-1.41-2.27-3.33-2.27-5.48c0-2.16,0.86-4.06,2.27-5.47c1.41-1.41,3.33-2.27,5.48-2.27c2.15,0,4.06,0.86,5.46,2.27
		c1.42,1.41,2.28,3.32,2.28,5.48C282.71,31.62,281.86,33.54,280.45,34.95L280.45,34.95z"/>
	<path class="st0" d="M399.62,23.95v-4.03c0-5.89-7.39-5.29-7.39-5.29l0,15.31c-0.06,2.02-0.89,3.83-2.23,5.17
		c-1.39,1.39-3.27,2.23-5.39,2.23c-2.12,0.01-4-0.85-5.4-2.23c-1.38-1.39-2.22-3.26-2.23-5.37v-9.81c0-5.89-7.39-5.29-7.39-5.29
		v15.19h0.01c0.06,8.25,6.75,14.9,15.01,14.91c2.79,0,5.38-0.77,7.62-2.1v7.79h0c-0.01,1.56-0.64,2.93-1.66,3.95
		c-1.04,1.03-2.42,1.67-4.01,1.66c-1.57,0-2.97-0.63-4-1.66c-1.04-1.04-1.65-2.42-1.66-4.01c0-0.84,0.18-1.61,0.49-2.32L374.64,45
		c-0.74,1.64-1.15,3.47-1.15,5.37c0,7.24,5.86,13.08,13.07,13.08c7.22,0,13.08-5.84,13.08-13.08h-0.01
		C399.62,50.36,399.63,23.95,399.62,23.95L399.62,23.95z"/>
	<path class="st0" d="M309.38,37.18c-1.99,0-3.69-0.7-5.09-2.11L304.07,35l19.27-8.1c0,0-0.41-2.91-3.47-6.97
		c-2.07-2.75-6.3-5.26-10.5-5.26c-4.19,0-7.78,1.49-10.77,4.48c-2.99,2.98-4.48,6.6-4.48,10.83c0,4.19,1.49,7.78,4.48,10.77
		c2.98,2.98,6.57,4.47,10.77,4.47c4.15,0,7.72-1.47,10.7-4.41c-2.22-2.38-2.04-2.18-5.45-5.71
		C313.21,36.49,311.46,37.18,309.38,37.18L309.38,37.18z M304.04,24.33c1.4-1.4,3.1-2.1,5.09-2.1c1.58,0,3.31,0.74,4.51,1.93
		l-11.4,4.88C302.42,27.41,302.85,25.52,304.04,24.33L304.04,24.33z"/>
</g>
</svg>
